<mxfile host="app.diagrams.net" agent="Mozilla/5.0 (Windows NT 10.0; Win64; x64) AppleWebKit/537.36 (KHTML, like Gecko) Chrome/141.0.0.0 Safari/537.36" version="28.2.8">
  <diagram name="Trang-1" id="trtnTq6ewXYbo1s1NHPD">
    <mxGraphModel dx="1042" dy="596" grid="1" gridSize="10" guides="1" tooltips="1" connect="1" arrows="1" fold="1" page="1" pageScale="1" pageWidth="827" pageHeight="1169" math="0" shadow="0">
      <root>
        <mxCell id="0" />
        <mxCell id="1" parent="0" />
        <mxCell id="rC-Zm90vdwdTdY2ODbGm-25" style="edgeStyle=orthogonalEdgeStyle;rounded=0;orthogonalLoop=1;jettySize=auto;html=1;exitX=0;exitY=0.5;exitDx=0;exitDy=0;entryX=0;entryY=0.5;entryDx=0;entryDy=0;" edge="1" parent="1" source="rC-Zm90vdwdTdY2ODbGm-20" target="rC-Zm90vdwdTdY2ODbGm-2">
          <mxGeometry relative="1" as="geometry" />
        </mxCell>
        <mxCell id="rC-Zm90vdwdTdY2ODbGm-20" value="" style="rounded=0;whiteSpace=wrap;html=1;" vertex="1" parent="1">
          <mxGeometry x="320" y="105" width="466" height="470" as="geometry" />
        </mxCell>
        <mxCell id="rC-Zm90vdwdTdY2ODbGm-1" value="Đăng nhập" style="ellipse;whiteSpace=wrap;html=1;" vertex="1" parent="1">
          <mxGeometry x="360" y="150" width="120" height="80" as="geometry" />
        </mxCell>
        <mxCell id="rC-Zm90vdwdTdY2ODbGm-2" value="đăng ký môn học" style="ellipse;whiteSpace=wrap;html=1;" vertex="1" parent="1">
          <mxGeometry x="360" y="300" width="120" height="80" as="geometry" />
        </mxCell>
        <mxCell id="rC-Zm90vdwdTdY2ODbGm-23" style="rounded=0;orthogonalLoop=1;jettySize=auto;html=1;" edge="1" parent="1" source="rC-Zm90vdwdTdY2ODbGm-3" target="rC-Zm90vdwdTdY2ODbGm-2">
          <mxGeometry relative="1" as="geometry" />
        </mxCell>
        <mxCell id="rC-Zm90vdwdTdY2ODbGm-24" value="extend" style="edgeLabel;html=1;align=center;verticalAlign=middle;resizable=0;points=[];" vertex="1" connectable="0" parent="rC-Zm90vdwdTdY2ODbGm-23">
          <mxGeometry x="0.0172" y="-6" relative="1" as="geometry">
            <mxPoint as="offset" />
          </mxGeometry>
        </mxCell>
        <mxCell id="rC-Zm90vdwdTdY2ODbGm-3" value="kiểm tra lịch học" style="ellipse;whiteSpace=wrap;html=1;" vertex="1" parent="1">
          <mxGeometry x="430" y="430" width="120" height="80" as="geometry" />
        </mxCell>
        <mxCell id="rC-Zm90vdwdTdY2ODbGm-15" style="edgeStyle=orthogonalEdgeStyle;rounded=0;orthogonalLoop=1;jettySize=auto;html=1;entryX=1;entryY=0.5;entryDx=0;entryDy=0;" edge="1" parent="1" source="rC-Zm90vdwdTdY2ODbGm-4" target="rC-Zm90vdwdTdY2ODbGm-3">
          <mxGeometry relative="1" as="geometry" />
        </mxCell>
        <mxCell id="rC-Zm90vdwdTdY2ODbGm-16" value="extend" style="edgeLabel;html=1;align=center;verticalAlign=middle;resizable=0;points=[];" vertex="1" connectable="0" parent="rC-Zm90vdwdTdY2ODbGm-15">
          <mxGeometry x="-0.0978" y="1" relative="1" as="geometry">
            <mxPoint as="offset" />
          </mxGeometry>
        </mxCell>
        <mxCell id="rC-Zm90vdwdTdY2ODbGm-4" value="xem môn học trùng giờ" style="ellipse;whiteSpace=wrap;html=1;" vertex="1" parent="1">
          <mxGeometry x="660" y="430" width="120" height="80" as="geometry" />
        </mxCell>
        <mxCell id="rC-Zm90vdwdTdY2ODbGm-12" style="edgeStyle=orthogonalEdgeStyle;rounded=0;orthogonalLoop=1;jettySize=auto;html=1;" edge="1" parent="1" source="rC-Zm90vdwdTdY2ODbGm-5">
          <mxGeometry relative="1" as="geometry">
            <mxPoint x="480" y="340" as="targetPoint" />
          </mxGeometry>
        </mxCell>
        <mxCell id="rC-Zm90vdwdTdY2ODbGm-13" value="extend" style="edgeLabel;html=1;align=center;verticalAlign=middle;resizable=0;points=[];" vertex="1" connectable="0" parent="rC-Zm90vdwdTdY2ODbGm-12">
          <mxGeometry x="-0.0971" relative="1" as="geometry">
            <mxPoint as="offset" />
          </mxGeometry>
        </mxCell>
        <mxCell id="rC-Zm90vdwdTdY2ODbGm-5" value="xác nhận đăng kí" style="ellipse;whiteSpace=wrap;html=1;" vertex="1" parent="1">
          <mxGeometry x="590" y="300" width="120" height="80" as="geometry" />
        </mxCell>
        <mxCell id="rC-Zm90vdwdTdY2ODbGm-9" style="rounded=0;orthogonalLoop=1;jettySize=auto;html=1;" edge="1" parent="1" source="rC-Zm90vdwdTdY2ODbGm-6">
          <mxGeometry relative="1" as="geometry">
            <mxPoint x="350" y="340" as="targetPoint" />
          </mxGeometry>
        </mxCell>
        <mxCell id="rC-Zm90vdwdTdY2ODbGm-26" style="rounded=0;orthogonalLoop=1;jettySize=auto;html=1;entryX=0;entryY=1;entryDx=0;entryDy=0;" edge="1" parent="1" source="rC-Zm90vdwdTdY2ODbGm-6" target="rC-Zm90vdwdTdY2ODbGm-3">
          <mxGeometry relative="1" as="geometry" />
        </mxCell>
        <mxCell id="rC-Zm90vdwdTdY2ODbGm-6" value="sinh viên" style="shape=umlActor;verticalLabelPosition=bottom;verticalAlign=top;html=1;outlineConnect=0;" vertex="1" parent="1">
          <mxGeometry x="140" y="340" width="30" height="60" as="geometry" />
        </mxCell>
        <mxCell id="rC-Zm90vdwdTdY2ODbGm-8" style="rounded=0;orthogonalLoop=1;jettySize=auto;html=1;entryX=0.047;entryY=0.648;entryDx=0;entryDy=0;entryPerimeter=0;" edge="1" parent="1" source="rC-Zm90vdwdTdY2ODbGm-6" target="rC-Zm90vdwdTdY2ODbGm-1">
          <mxGeometry relative="1" as="geometry" />
        </mxCell>
        <mxCell id="rC-Zm90vdwdTdY2ODbGm-21" value="hệ thống quản lý môn học" style="text;html=1;whiteSpace=wrap;strokeColor=none;fillColor=none;align=center;verticalAlign=middle;rounded=0;" vertex="1" parent="1">
          <mxGeometry x="478" y="120" width="60" height="30" as="geometry" />
        </mxCell>
      </root>
    </mxGraphModel>
  </diagram>
</mxfile>
